<mxfile host="app.diagrams.net" modified="2023-09-22T10:13:02.952Z" agent="Mozilla/5.0 (Macintosh; Intel Mac OS X 10_15_7) AppleWebKit/537.36 (KHTML, like Gecko) Chrome/117.0.0.0 Safari/537.36" etag="sGbic2bvLnpL2aZoso9u" version="21.8.0" type="github">
  <diagram id="6a731a19-8d31-9384-78a2-239565b7b9f0" name="Page-1">
    <mxGraphModel dx="127" dy="554" grid="1" gridSize="10" guides="1" tooltips="1" connect="1" arrows="1" fold="1" page="1" pageScale="1" pageWidth="827" pageHeight="1169" background="none" math="0" shadow="0">
      <root>
        <mxCell id="0" />
        <mxCell id="1" parent="0" />
        <mxCell id="979" value="" style="whiteSpace=wrap;html=1;strokeColor=none;fillColor=#333333;fontFamily=Verdana;fontSize=24;fontColor=#FFFFFF;align=center;" parent="1" vertex="1">
          <mxGeometry x="854" y="31" width="776" height="729" as="geometry" />
        </mxCell>
        <mxCell id="980" value="" style="ellipse;whiteSpace=wrap;html=1;fontFamily=Verdana;fontSize=16;fontColor=#DDDDDD;strokeColor=none;fillColor=#282828;" parent="1" vertex="1">
          <mxGeometry x="896" y="271" width="350" height="350" as="geometry" />
        </mxCell>
        <mxCell id="985" value="BEFORE SPRING BOOT 3.1" style="text;html=1;resizable=0;points=[];autosize=1;align=left;verticalAlign=top;spacingTop=-4;fontSize=24;fontFamily=Verdana;fontColor=#DDDDDD;fontStyle=1" parent="1" vertex="1">
          <mxGeometry x="948.9999999999999" y="386" width="380" height="40" as="geometry" />
        </mxCell>
        <mxCell id="986" value="1&amp;nbsp;" style="text;html=1;resizable=0;points=[];autosize=1;align=left;verticalAlign=top;spacingTop=-4;fontSize=100;fontFamily=Verdana;fontColor=#F18808;fontStyle=1" parent="1" vertex="1">
          <mxGeometry x="873" y="309" width="110" height="120" as="geometry" />
        </mxCell>
        <mxCell id="987" value="2" style="text;html=1;resizable=0;points=[];autosize=1;align=left;verticalAlign=top;spacingTop=-4;fontSize=100;fontFamily=Verdana;fontColor=#F18808;fontStyle=1;collapsible=0;dropTarget=0;fixDash=0;portConstraintRotation=0;backgroundOutline=0;comic=0;rounded=0;" parent="1" vertex="1">
          <mxGeometry x="1194" y="531" width="74" height="120" as="geometry" />
        </mxCell>
        <mxCell id="991" value="&lt;div style=&quot;line-height: 120%&quot;&gt;&lt;font style=&quot;line-height: 120%&quot;&gt;&lt;div&gt;&lt;span style=&quot;line-height: 120%&quot;&gt;Reduce it to purely the essential &lt;/span&gt;&lt;br&gt;&lt;span&gt;information.&lt;/span&gt;&lt;br&gt;&lt;/div&gt;&lt;/font&gt;&lt;/div&gt;" style="text;resizable=0;points=[];autosize=1;align=left;verticalAlign=top;spacingTop=-4;fontSize=16;fontFamily=Verdana;fontColor=#888888;html=1;" parent="1" vertex="1">
          <mxGeometry x="949" y="459" width="280" height="40" as="geometry" />
        </mxCell>
        <mxCell id="992" value="&lt;b&gt;&lt;font style=&quot;font-size: 70px;&quot;&gt;DESIGN RULES&lt;/font&gt;&lt;/b&gt;&lt;br&gt;" style="whiteSpace=wrap;html=1;strokeColor=none;fillColor=none;fontFamily=Verdana;fontSize=70;fontColor=#dddddd;align=left;" parent="1" vertex="1">
          <mxGeometry x="888" y="79" width="700" height="78" as="geometry" />
        </mxCell>
        <mxCell id="993" value="&lt;span&gt;for infographics&lt;/span&gt;" style="text;html=1;resizable=0;points=[];autosize=1;align=left;verticalAlign=top;spacingTop=-4;fontSize=35;fontFamily=Verdana;fontColor=#888888;" parent="1" vertex="1">
          <mxGeometry x="892" y="163" width="636" height="96" as="geometry" />
        </mxCell>
        <mxCell id="994" value="&lt;div style=&quot;line-height: 150%&quot;&gt;IT&#39;S ALL ABOUT&amp;nbsp;&lt;br&gt;&lt;span&gt;VISION-TRACKING&lt;/span&gt;&lt;/div&gt;" style="text;html=1;resizable=0;points=[];autosize=1;align=left;verticalAlign=top;spacingTop=-4;fontSize=24;fontFamily=Verdana;fontColor=#DDDDDD;fontStyle=1" parent="1" vertex="1">
          <mxGeometry x="1275" y="604" width="240" height="70" as="geometry" />
        </mxCell>
        <mxCell id="998" value="Scribble down your content." style="text;html=1;resizable=0;points=[];autosize=1;align=left;verticalAlign=top;spacingTop=-4;fontSize=16;fontColor=#888888;fontFamily=Verdana;" parent="1" vertex="1">
          <mxGeometry x="949" y="430" width="236" height="18" as="geometry" />
        </mxCell>
        <mxCell id="999" value="&lt;div&gt;Guide the viewer&#39;s eye through&amp;nbsp;&lt;br&gt;&lt;span&gt;the content.&lt;/span&gt;&lt;/div&gt;" style="text;html=1;resizable=0;points=[];autosize=1;align=left;verticalAlign=top;spacingTop=-4;fontSize=16;fontColor=#888888;fontFamily=Verdana;" parent="1" vertex="1">
          <mxGeometry x="1275" y="687" width="267" height="36" as="geometry" />
        </mxCell>
        <mxCell id="1000" value="&lt;div style=&quot;line-height: 120%&quot;&gt;&lt;font style=&quot;line-height: 120%&quot;&gt;&lt;div&gt;Each part of the graphic should&lt;br&gt;be well-structured.&lt;br&gt;&lt;/div&gt;&lt;/font&gt;&lt;/div&gt;" style="text;resizable=0;points=[];autosize=1;align=left;verticalAlign=top;spacingTop=-4;fontSize=16;fontFamily=Verdana;fontColor=#888888;html=1;" parent="1" vertex="1">
          <mxGeometry x="1275" y="735" width="262" height="38" as="geometry" />
        </mxCell>
        <mxCell id="1007" value="" style="endArrow=oval;html=1;strokeColor=#666666;fontFamily=Verdana;fontSize=16;fontColor=#DDDDDD;endFill=1;rounded=1;endSize=6;startArrow=oval;startFill=1;strokeWidth=2;movable=1;resizable=1;rotatable=1;deletable=1;editable=1;connectable=1;flowAnimation=1;shadow=0;orthogonalLoop=1;anchorPointDirection=1;" parent="1" edge="1">
          <mxGeometry width="50" height="50" relative="1" as="geometry">
            <mxPoint x="1169" y="717" as="sourcePoint" />
            <mxPoint x="1246" y="438" as="targetPoint" />
            <Array as="points">
              <mxPoint x="1082" y="717" />
              <mxPoint x="1082" y="527" />
              <mxPoint x="1246" y="527" />
            </Array>
          </mxGeometry>
        </mxCell>
        <mxCell id="1008" value="" style="endArrow=oval;html=1;strokeColor=#666666;fontFamily=Verdana;fontSize=16;fontColor=#DDDDDD;endFill=0;rounded=1;endSize=6;startArrow=oval;startFill=0;dashed=1;strokeWidth=2;dashPattern=1 1;" parent="1" edge="1">
          <mxGeometry x="1092" y="448" width="50" height="50" as="geometry">
            <mxPoint x="1091" y="663" as="sourcePoint" />
            <mxPoint x="1091" y="589" as="targetPoint" />
          </mxGeometry>
        </mxCell>
        <mxCell id="1009" value="" style="endArrow=none;html=1;strokeColor=#666666;fontFamily=Verdana;fontSize=16;fontColor=#DDDDDD;endFill=0;rounded=1;endSize=6;startArrow=none;startFill=0;strokeWidth=2;dashed=1;dashPattern=1 1;" parent="1" edge="1">
          <mxGeometry x="1059" y="444" width="50" height="50" as="geometry">
            <mxPoint x="1109" y="536" as="sourcePoint" />
            <mxPoint x="1254" y="514" as="targetPoint" />
            <Array as="points">
              <mxPoint x="1127" y="536" />
              <mxPoint x="1174" y="536" />
              <mxPoint x="1254" y="536" />
            </Array>
          </mxGeometry>
        </mxCell>
        <mxCell id="1010" value="" style="endArrow=oval;html=1;strokeColor=#666666;fontFamily=Verdana;fontSize=16;fontColor=#DDDDDD;endFill=1;rounded=1;endSize=6;startArrow=oval;startFill=1;strokeWidth=2;movable=1;resizable=1;rotatable=1;deletable=1;editable=1;connectable=1;" parent="1" edge="1">
          <mxGeometry x="1052" y="761" width="50" height="50" as="geometry">
            <mxPoint x="1290" y="925" as="sourcePoint" />
            <mxPoint x="1216" y="761" as="targetPoint" />
            <Array as="points">
              <mxPoint x="1337" y="925" />
              <mxPoint x="1337" y="824" />
              <mxPoint x="1216" y="824" />
            </Array>
          </mxGeometry>
        </mxCell>
        <mxCell id="1011" value="" style="endArrow=none;html=1;strokeColor=#666666;fontFamily=Verdana;fontSize=16;fontColor=#DDDDDD;endFill=0;rounded=1;endSize=6;startArrow=none;startFill=0;strokeWidth=2;dashed=1;dashPattern=1 1;" parent="1" edge="1">
          <mxGeometry x="1066" y="444" width="50" height="50" as="geometry">
            <mxPoint x="1329" y="898" as="sourcePoint" />
            <mxPoint x="1329" y="839" as="targetPoint" />
          </mxGeometry>
        </mxCell>
        <mxCell id="1019" value="" style="group" parent="1" vertex="1" connectable="0">
          <mxGeometry x="1183" y="683" width="66" height="66" as="geometry" />
        </mxCell>
        <mxCell id="1020" value="" style="ellipse;whiteSpace=wrap;html=1;fillColor=none;fontFamily=Verdana;fontSize=16;fontColor=#DDDDDD;strokeColor=#666666;strokeWidth=2;" parent="1019" vertex="1">
          <mxGeometry width="66" height="66" as="geometry" />
        </mxCell>
        <mxCell id="1021" value="" style="ellipse;whiteSpace=wrap;html=1;fillColor=#666666;fontFamily=Verdana;fontSize=16;fontColor=#DDDDDD;strokeColor=none;" parent="1019" vertex="1">
          <mxGeometry x="4" y="4" width="58" height="58" as="geometry" />
        </mxCell>
        <mxCell id="1041" value="" style="html=1;verticalLabelPosition=bottom;labelBackgroundColor=#ffffff;verticalAlign=top;strokeWidth=2;strokeColor=#282828;fillColor=none;shadow=0;dashed=0;shape=mxgraph.ios7.icons.eye;fontFamily=Verdana;fontSize=16;fontColor=#DDDDDD;" parent="1" vertex="1">
          <mxGeometry x="1194" y="703.5" width="44" height="25" as="geometry" />
        </mxCell>
        <mxCell id="1042" value="" style="ellipse;whiteSpace=wrap;html=1;dashed=1;strokeColor=none;strokeWidth=1;fillColor=#282828;fontFamily=Verdana;fontSize=16;fontColor=#DDDDDD;treeMoving=0;portConstraintRotation=0;" parent="1" vertex="1">
          <mxGeometry x="1205" y="705" width="22" height="22" as="geometry" />
        </mxCell>
        <mxCell id="1043" value="" style="ellipse;whiteSpace=wrap;html=1;dashed=1;strokeColor=none;strokeWidth=1;fillColor=#666666;fontFamily=Verdana;fontSize=16;fontColor=#DDDDDD;" parent="1" vertex="1">
          <mxGeometry x="1207" y="707" width="18" height="18" as="geometry" />
        </mxCell>
        <mxCell id="1044" value="" style="ellipse;whiteSpace=wrap;html=1;dashed=1;strokeColor=none;strokeWidth=1;fillColor=#282828;fontFamily=Verdana;fontSize=16;fontColor=#DDDDDD;" parent="1" vertex="1">
          <mxGeometry x="1208.5" y="708.5" width="15" height="15" as="geometry" />
        </mxCell>
        <mxCell id="1045" value="" style="endArrow=none;html=1;strokeColor=#282828;strokeWidth=3;fontFamily=Verdana;fontSize=16;fontColor=#DDDDDD;endFill=0;" parent="1" edge="1">
          <mxGeometry x="1223" y="392" width="50" height="50" as="geometry">
            <mxPoint x="1222" y="392" as="sourcePoint" />
            <mxPoint x="1234" y="392" as="targetPoint" />
          </mxGeometry>
        </mxCell>
        <mxCell id="1048" value="" style="endArrow=none;html=1;strokeColor=#282828;strokeWidth=3;fontFamily=Verdana;fontSize=16;fontColor=#DDDDDD;endFill=0;" parent="1" edge="1">
          <mxGeometry x="1257" y="392" width="50" height="50" as="geometry">
            <mxPoint x="1256" y="392" as="sourcePoint" />
            <mxPoint x="1268" y="392" as="targetPoint" />
          </mxGeometry>
        </mxCell>
        <mxCell id="1049" value="" style="endArrow=none;html=1;strokeColor=#282828;strokeWidth=3;fontFamily=Verdana;fontSize=16;fontColor=#DDDDDD;endFill=0;rotation=0;" parent="1" edge="1">
          <mxGeometry x="1256" y="393" width="50" height="50" as="geometry">
            <mxPoint x="1262" y="387" as="sourcePoint" />
            <mxPoint x="1262" y="398" as="targetPoint" />
          </mxGeometry>
        </mxCell>
      </root>
    </mxGraphModel>
  </diagram>
</mxfile>
